<?xml version="1.0" encoding="UTF-8" standalone="no"?>
<!-- Created with Inkscape (http://www.inkscape.org/) -->

<svg
   width="210mm"
   height="297mm"
   viewBox="0 0 210 297"
   version="1.1"
   id="svg5"
   xml:space="preserve"
   inkscape:export-filename="Blender assets\Transformer Outline.png"
   inkscape:export-xdpi="96"
   inkscape:export-ydpi="96"
   inkscape:version="1.2.1 (9c6d41e410, 2022-07-14)"
   sodipodi:docname="Generator Outlines.svg"
   xmlns:inkscape="http://www.inkscape.org/namespaces/inkscape"
   xmlns:sodipodi="http://sodipodi.sourceforge.net/DTD/sodipodi-0.dtd"
   xmlns="http://www.w3.org/2000/svg"
   xmlns:svg="http://www.w3.org/2000/svg"><sodipodi:namedview
     id="namedview7"
     pagecolor="#ffffff"
     bordercolor="#000000"
     borderopacity="0.25"
     inkscape:showpageshadow="2"
     inkscape:pageopacity="0.0"
     inkscape:pagecheckerboard="0"
     inkscape:deskcolor="#d1d1d1"
     inkscape:document-units="mm"
     showgrid="false"
     inkscape:zoom="0.90731474"
     inkscape:cx="350.48477"
     inkscape:cy="481.08995"
     inkscape:window-width="1440"
     inkscape:window-height="890"
     inkscape:window-x="-6"
     inkscape:window-y="-6"
     inkscape:window-maximized="1"
     inkscape:current-layer="layer3" /><defs
     id="defs2"><clipPath
       clipPathUnits="userSpaceOnUse"
       id="clipPath1868"><path
         id="path1870"
         style="fill:#ff0000;fill-opacity:1;fill-rule:nonzero;stroke:none;stroke-width:0.264583"
         d="m 62.446318,98.516985 v 1.338419 h 7.496702 v -1.338419 h -1.759067 c 0.146931,0.427527 -0.213267,0.921591 -1.088305,0.913122 -0.327208,-0.0032 -0.644213,-0.08676 -0.960665,-0.160197 -0.152665,-0.01561 -0.332161,-0.112752 -0.465087,-0.124024 -0.07767,5.3e-4 -0.243116,-0.02209 -0.279054,-0.0155 -0.01905,0.0011 -0.04219,0.0044 -0.0646,0.0088 -0.0105,0.0065 -0.02096,0.01257 -0.02997,0.0181 0.02223,0.137573 -0.08436,0.209741 -0.435634,0.157097 -0.549947,-0.08242 -0.287962,0.0059 -0.509013,-0.797367 z m 2.437577,0 c 0.181798,0.226605 0.366363,0.456808 0.40721,0.614434 0.03817,-0.03354 0.08992,-0.07908 0.158647,-0.139528 -0.0597,-0.188706 -0.0998,-0.344808 -0.127641,-0.474906 z" /></clipPath><clipPath
       clipPathUnits="userSpaceOnUse"
       id="clipPath1912"><path
         id="path1914"
         style="fill:#ff0000;fill-opacity:1;fill-rule:nonzero;stroke:none;stroke-width:0.264583"
         d="m 54.425617,95.82826 v 76.64855 H 144.5705 V 95.82826 h -20.49229 c 0.003,0.01675 0.006,0.03335 0.008,0.05012 0.0306,0.223637 0.0143,0.447339 -0.005,0.670761 -0.10017,1.185143 -1.09379,1.339266 -1.41852,0.608749 -0.18571,0.157527 -0.39079,0.219141 -0.57567,0.193786 -0.40869,0.273214 -1.02736,-2.54e-4 -1.14877,-0.915707 -0.0269,-0.20256 -0.0546,-0.405101 -0.0816,-0.607714 z m 9.940997,0.274918 c 0.284178,-0.0021 0.613497,0.213429 0.860411,0.720886 0.06343,0.130347 0.121201,0.263607 0.174152,0.398942 -0.01712,-0.528995 0.287223,-0.83838 0.642337,-0.845426 0.08088,-0.0016 0.16429,0.01368 0.246496,0.04393 0.02365,-0.0052 0.04826,-0.008 0.07338,-0.0083 0.230487,-0.0024 0.51983,0.207441 0.821137,0.684712 0.20111,0.318569 0.242134,0.69165 0.289904,1.056267 0.148236,1.131435 -0.689927,1.514332 -1.181838,0.976167 -0.245404,-0.06247 -0.483248,-0.282752 -0.619601,-0.675926 -0.10763,0.894734 -1.194509,0.992527 -1.523421,-0.211357 -0.06177,-0.226094 -0.150143,-0.446291 -0.240813,-0.661974 -0.364501,-0.867074 -0.01577,-1.474533 0.457854,-1.477947 z" /></clipPath><clipPath
       clipPathUnits="userSpaceOnUse"
       id="clipPath1986"><path
         id="path1988"
         style="fill:#ff0000;fill-opacity:1;fill-rule:nonzero;stroke:none;stroke-width:0.264583"
         d="m 131.29328,113.28507 v 0.11679 c 0.0346,-0.0397 0.0738,-0.0788 0.11885,-0.11679 z m 1.6185,1.05989 c -0.0809,0.001 -0.16179,0.008 -0.24133,0.0202 -0.11124,0.31066 -0.18695,0.63076 -0.18293,0.96583 0.0174,0.63799 0.15317,1.26334 0.19637,1.89963 0.0463,0.71288 0.0887,1.42606 0.16278,2.13682 0.0522,0.75367 0.0224,1.49914 -0.0744,2.24844 -0.02,0.70802 0.0341,1.41472 0.0186,2.12287 -0.003,0.64861 0.0438,1.32131 -0.20929,1.93373 -0.003,0.008 -0.007,0.0153 -0.0103,0.0233 0.0206,0.0798 0.0369,0.16564 0.0475,0.25838 0.12941,1.12538 0.20303,2.25541 0.25063,3.38687 0.0573,1.37146 -0.0172,2.74251 -0.0863,4.1119 -0.0264,0.66728 -0.1201,1.32618 -0.24805,1.9792 0.0135,0.1837 0.005,0.36958 -0.015,0.55449 h 7.65793 v -21.46535 c -0.0784,0.008 -0.14707,0.012 -0.17984,0.0103 -0.13619,-0.008 -0.27187,-0.0225 -0.40669,-0.0434 -0.0677,0.0132 -0.13545,0.0266 -0.20309,0.0398 -0.25618,0.0535 -0.51823,0.0604 -0.77825,0.0811 -0.1592,0.0239 -0.32282,0.003 -0.48162,0.0274 -0.14458,0.0385 -0.29493,0.0516 -0.44338,0.0667 -0.24034,0.0363 -0.48129,0.0102 -0.72192,-0.004 -0.009,0.002 -0.0189,0.003 -0.0279,0.005 -0.23478,0.0428 -0.43427,0.0342 -0.5979,-0.0103 -0.5132,0.11777 -1.0217,0.11783 -1.54099,-0.002 -0.49988,-0.098 -0.98747,-0.24765 -1.49034,-0.32815 -0.12976,-0.0113 -0.26234,-0.0209 -0.3943,-0.0186 z m -1.6185,4.51549 v 2.5156 c 0.0678,-0.63405 0.1051,-1.2625 0.0574,-1.90117 -0.0216,-0.20463 -0.0402,-0.40947 -0.0574,-0.61443 z m 0.0667,9.9167 c -0.0221,0.0935 -0.0434,0.1873 -0.0667,0.28061 v 4.48138 c 0.003,-0.0547 0.007,-0.10951 0.009,-0.16434 0.0728,-1.32165 0.14329,-2.64581 0.0889,-3.96978 -0.009,-0.20933 -0.0197,-0.41861 -0.031,-0.62787 z" /></clipPath><clipPath
       clipPathUnits="userSpaceOnUse"
       id="clipPath2980"><path
         id="path2982"
         style="fill:#ff0000;fill-opacity:1;fill-rule:nonzero;stroke:none;stroke-width:0.264583"
         d="m 20.946008,85.948758 v 5.794478 c 0.09902,0.03162 0.198612,0.0596 0.298173,0.0894 0.02377,-0.02535 0.05935,-0.05088 0.124541,-0.077 0.08222,-0.03294 0.156533,-0.07268 0.242362,-0.07286 0.03358,-7.4e-5 0.06889,0.006 0.10697,0.02066 0.248964,0.09615 0.340557,0.305946 0.273885,0.541055 0.03693,0.04282 0.06964,0.08961 0.09715,0.141591 0.02716,0.05131 0.04133,0.108533 0.06201,0.162783 2.55e-4,7.93e-4 2.12e-4,0.0013 5.29e-4,0.0021 0.284717,0.268973 0.231882,0.563277 0.02429,0.651124 0.01042,0.01254 0.01931,0.02037 0.02997,0.03359 0.361514,0.447921 0.599357,0.916763 0.639237,1.49965 0.02013,0.124955 0.07362,0.242187 0.09354,0.367419 0.396744,0.599858 0.390395,1.194544 0.137976,1.992128 -0.05579,0.139792 -0.57579,1.222377 -0.694532,1.286224 0.11049,0.495824 0.358105,0.972658 0.387574,1.481563 0.257537,1.787237 0.169409,3.585057 0.118339,5.385197 0.0083,2.23079 0.207497,4.45202 0.52865,6.65955 0.348381,2.38937 0.733131,4.78622 0.569474,7.2104 -0.05528,2.1403 -0.09827,4.28139 -0.02067,6.42183 0.05493,1.67868 0.12202,3.3571 0.15658,5.0364 0.0012,1.04586 -0.03698,2.09551 -0.47749,3.06493 -0.0981,0.21589 -0.206657,0.40324 -0.321945,0.56843 0.08232,0.36212 0.160456,0.72552 0.231511,1.0909 0.342002,1.8861 0.511442,3.79151 0.577742,5.70508 0.02453,1.72338 -0.05873,3.44602 -0.0739,5.16918 -0.03295,1.42843 0.04707,2.85296 0.124023,4.2783 0.07635,1.64674 -0.09245,3.29068 -0.19482,4.93251 -0.106733,1.82798 -0.189741,3.65636 -0.201021,5.48753 0.0018,1.75024 0.122947,3.49712 0.214457,5.24411 0.05843,1.19624 0.136465,2.39163 0.219625,3.58635 0.07484,0.77922 0.247738,1.54317 0.342098,2.31976 0.05982,0.54829 0.03486,1.10037 0.04547,1.65055 0.08053,0.33225 0.09421,0.73362 0.0155,1.1994 -0.01482,0.11044 -0.03514,0.21984 -0.05943,0.32866 0.0045,-0.0378 0.0026,-0.0715 -0.0036,-0.10232 -0.116825,0.24242 -0.395943,0.38606 -0.731222,0.45631 -0.0057,0.0261 -0.01255,0.0529 -0.02119,0.0806 -0.02867,0.0922 -0.05897,0.18353 -0.08837,0.27544 -0.208403,0.65157 -0.848532,0.47749 -0.712618,-0.13384 -0.01897,-0.0582 -0.03241,-0.1235 -0.03617,-0.19948 -0.750298,-0.0951 -1.435011,-0.46436 -1.246952,-1.01544 0.0034,-0.0125 0.0078,-0.0281 0.01912,-0.0341 0.0068,-0.26902 -0.04331,-0.53743 -0.03721,-0.80667 -0.0047,-0.4553 0.01434,-0.91132 -0.01809,-1.36581 -0.08908,-0.82445 -0.288458,-1.63432 -0.343648,-2.4634 -0.0761,-1.21072 -0.151983,-2.42137 -0.204122,-3.63337 -0.07212,-1.51657 -0.167393,-3.03291 -0.193787,-4.55114 v 26.4898 H 182.80745 V 85.948758 Z m 0,7.68222 v 1.978691 c 0.152528,-0.362304 0.169512,-1.133461 0.235645,-1.786456 -0.07796,-0.06482 -0.156054,-0.129426 -0.235645,-0.192235 z m 1.435055,0.879533 c -0.0027,-0.0026 0.0048,0.0059 0.0072,0.0088 0.0016,0.0011 0.0027,0.0024 0.0047,0.0036 -0.0042,-0.004 -0.0076,-0.0084 -0.01188,-0.01241 z m -0.04858,3.54552 c -7.67e-4,0.0011 -7.14e-4,0.0058 0,0.0155 0.0065,0.08651 0.0206,0.171805 0.03772,0.256834 0.0034,-0.0096 0.0075,-0.01987 0.0083,-0.02739 -0.0034,-0.06824 -0.04068,-0.252095 -0.04599,-0.244946 z m -1.386479,16.623279 v 15.39699 c 0.09613,0.007 0.193966,0.0282 0.291972,0.0574 -0.02809,-1.50303 -0.07739,-3.00557 -0.118856,-4.50825 -0.07733,-2.19319 -0.02792,-4.38658 0.02636,-6.57945 0.09941,-1.46519 -0.01704,-2.9187 -0.199471,-4.36665 z m 0,22.39294 v 23.19652 c 0.01983,-1.68872 0.08705,-3.37622 0.188103,-5.06222 0.0964,-1.53062 0.245388,-3.06369 0.183968,-4.59869 -0.08023,-1.48599 -0.161713,-2.97266 -0.120923,-4.46174 0.01819,-1.68373 0.09894,-3.36628 0.07803,-5.05034 -0.03811,-1.34713 -0.138058,-2.69048 -0.329179,-4.02353 z" /></clipPath></defs><g
     inkscape:label="Layer 1"
     inkscape:groupmode="layer"
     id="layer1"
     style="display:none"><path
       style="fill:#ffa100;fill-opacity:0;stroke:#000000;stroke-width:0.512001;stroke-linecap:round;stroke-opacity:1;paint-order:markers stroke fill"
       d="m 65.773815,171.85581 c 0,-1.36418 -6.422236,-66.69132 -6.422236,-66.69132 0,0 -1.210874,-2.22253 2.498389,-2.72835 3.709262,-0.50581 81.971642,-3.801295 81.971642,-3.801295 0,0 1.91594,-1.103601 1.6707,2.713025 -0.24524,3.81662 -5.31865,47.42425 -5.31865,47.42425 z"
       id="path356" /><path
       style="fill:#ffa100;fill-opacity:0;stroke:#000000;stroke-width:0.512001;stroke-linecap:round;stroke-opacity:1;paint-order:markers stroke fill"
       d="M 65.176042,164.29919 140.66264,142.79427"
       id="path1506"
       sodipodi:nodetypes="cc" /><path
       style="fill:#ffa100;fill-opacity:0;stroke:#000000;stroke-width:0.485187;stroke-linecap:round;stroke-opacity:1;paint-order:markers stroke fill"
       d="m 67.357252,171.14257 -0.596356,-6.90926"
       id="path1508"
       sodipodi:nodetypes="cc" /><path
       style="fill:#ffa100;fill-opacity:0;stroke:#000000;stroke-width:0.485187;stroke-linecap:round;stroke-opacity:1;paint-order:markers stroke fill"
       d="m 86.118102,165.49906 -0.596356,-6.75674"
       id="path1510"
       sodipodi:nodetypes="cc" /><path
       style="fill:#ffa100;fill-opacity:0;stroke:#000000;stroke-width:0.485187;stroke-linecap:round;stroke-opacity:1;paint-order:markers stroke fill"
       d="m 87.490847,165.04148 -0.443828,-6.90926"
       id="path1512"
       sodipodi:nodetypes="cc" /><path
       style="fill:#ffa100;fill-opacity:0;stroke:#000000;stroke-width:0.453322;stroke-linecap:round;stroke-opacity:1;paint-order:markers stroke fill"
       d="m 128.68913,152.24512 -0.17064,-6.02596"
       id="path1514"
       sodipodi:nodetypes="cc" /><path
       style="fill:#ffa100;fill-opacity:0;stroke:#000000;stroke-width:0.453322;stroke-linecap:round;stroke-opacity:1;paint-order:markers stroke fill"
       d="m 129.90935,151.94007 0.13442,-5.72091"
       id="path1516"
       sodipodi:nodetypes="cc" /><path
       style="fill:#ffa100;fill-opacity:0;stroke:#000000;stroke-width:0.485187;stroke-linecap:round;stroke-opacity:1;paint-order:markers stroke fill"
       d="m 138.89253,149.33118 0.47133,-5.84157"
       id="path1614"
       sodipodi:nodetypes="cc" /><path
       style="fill:#ffa100;fill-opacity:0;stroke:#000000;stroke-width:0.512001;stroke-linecap:round;stroke-opacity:1;paint-order:markers stroke fill"
       d="M 65.861665,172.22097 59.494382,148.88453 54.682831,100.4955 c 0,0 -0.112268,-1.772292 1.964717,-1.900602 2.076987,-0.128309 66.639962,-2.51007 66.639962,-2.51007 l 21.02679,2.300932"
       id="path1618"
       sodipodi:nodetypes="cccscc"
       clip-path="url(#clipPath1912)" /><path
       style="fill:#ffa100;fill-opacity:0;stroke:#000000;stroke-width:0.512001;stroke-linecap:round;stroke-opacity:1;paint-order:markers stroke fill"
       d="M 59.598631,103.56884 54.851236,99.551118"
       id="path1620" /><ellipse
       style="fill:#ffa100;fill-opacity:0;stroke:#000000;stroke-width:0.512001;stroke-linecap:round;stroke-opacity:1;paint-order:markers stroke fill"
       id="path1676"
       cx="66.194466"
       cy="99.186234"
       rx="3.492383"
       ry="0.41299886"
       clip-path="url(#clipPath1868)" /><path
       style="fill:#ffa100;fill-opacity:0;stroke:#000000;stroke-width:0.512001;stroke-linecap:round;stroke-opacity:1;paint-order:markers stroke fill"
       d="m 67.826381,99.246382 -0.32879,-6.038604 0.809946,-2.3978 0.721733,-0.328795 -3.496395,-2.638382 -3.744989,2.814809 1.635926,0.07217 0.625502,2.81481 0.232558,5.541401 z"
       id="path1680" /><rect
       style="fill:#ffa100;fill-opacity:0;stroke:#000000;stroke-width:0.512001;stroke-linecap:round;stroke-opacity:1;paint-order:markers stroke fill"
       id="rect1734"
       width="3.3199692"
       height="5.1644907"
       x="64.281868"
       y="93.913483" /><path
       style="fill:#ffa100;fill-opacity:0;stroke:#000000;stroke-width:0.512001;stroke-linecap:round;stroke-opacity:1;paint-order:markers stroke fill"
       d="m 68.331595,90.376929 -5.621494,0.152369"
       id="path1738"
       sodipodi:nodetypes="cc" /><path
       style="fill:#ffa100;fill-opacity:0;stroke:#000000;stroke-width:0.512001;stroke-linecap:round;stroke-opacity:1;paint-order:markers stroke fill"
       d="M 65.316356,94.033775 64.354045,90.593454"
       id="path1740" /><ellipse
       style="fill:#ffa100;fill-opacity:0;stroke:#000000;stroke-width:0.512001;stroke-linecap:round;stroke-opacity:1;paint-order:markers stroke fill"
       id="path1872"
       cx="122.42544"
       cy="96.964867"
       rx="2.7546122"
       ry="0.10024244" /><path
       style="fill:#ffa100;fill-opacity:0;stroke:#000000;stroke-width:0.512001;stroke-linecap:round;stroke-opacity:1;paint-order:markers stroke fill"
       d="m 120.06377,91.363317 6.06255,0.37691 c 0,0 0.4972,-1.98881 -0.77786,-2.060983 -1.27507,-0.07218 -4.22567,-0.08853 -4.22567,-0.08853 l -0.61861,0.626624 c 0,0 -0.34418,-0.04891 -0.44041,1.145981 z"
       id="path1874"
       sodipodi:nodetypes="ccsccc" /><path
       style="fill:#ffa100;fill-opacity:0;stroke:#000000;stroke-width:0.512001;stroke-linecap:round;stroke-opacity:1;paint-order:markers stroke fill"
       d="m 124.04115,96.848266 0.63353,-4.891992"
       id="path1876"
       sodipodi:nodetypes="cc" /><path
       style="fill:#ffa100;fill-opacity:0;stroke:#000000;stroke-width:0.512001;stroke-linecap:round;stroke-opacity:1;paint-order:markers stroke fill"
       d="M 121.05014,97.073126 121.411,91.579839"
       id="path1878" /><path
       style="fill:#ffa100;fill-opacity:0;stroke:#000000;stroke-width:0.512001;stroke-linecap:round;stroke-opacity:1;paint-order:markers stroke fill"
       d="m 134.12152,110.56175 7.33761,-0.4972 0.15236,-4.65927 -7.38573,0.36087 z"
       id="path1918" /><rect
       style="fill:#ffa100;fill-opacity:0;stroke:#000000;stroke-width:0.512001;stroke-linecap:round;stroke-opacity:1;paint-order:markers stroke fill"
       id="rect1920"
       width="2.9109874"
       height="3.9535623"
       x="134.79514"
       y="106.07089" /><rect
       style="fill:#ffa100;fill-opacity:0;stroke:#000000;stroke-width:0.512001;stroke-linecap:round;stroke-opacity:1;paint-order:markers stroke fill"
       id="rect1922"
       width="3.3520477"
       height="4.1941342"
       x="138.23537"
       y="105.72606" /><path
       style="fill:#ffa100;fill-opacity:0;stroke:#000000;stroke-width:0.512001;stroke-linecap:round;stroke-opacity:1;paint-order:markers stroke fill"
       d="m 133.53611,115.10072 7.89896,-0.33681 -1.668,20.62589 -7.00883,1.66001 z"
       id="path1926"
       sodipodi:nodetypes="ccccc" /><path
       style="fill:#ffa100;fill-opacity:0;stroke:#000000;stroke-width:0.512001;stroke-linecap:round;stroke-opacity:1;paint-order:markers stroke fill"
       d="m 131.55326,113.57545 8.35654,1.03593 -1.05789,19.71073 -7.00883,1.35495 z"
       id="path1928"
       sodipodi:nodetypes="ccccc"
       clip-path="url(#clipPath1986)" /><path
       style="fill:#ffa100;fill-opacity:0;stroke:#000000;stroke-width:0.512001;stroke-linecap:round;stroke-opacity:1;paint-order:markers stroke fill"
       d="m 134.12953,121.87712 5.28469,-0.65759 0.2486,-5.52537 -5.34083,0.37691 z"
       id="path1990"
       sodipodi:nodetypes="ccccc" /><path
       style="fill:#ffa100;fill-opacity:0;stroke:#000000;stroke-width:0.512001;stroke-linecap:round;stroke-opacity:1;paint-order:markers stroke fill"
       d="m 139.39016,117.17775 -3.9134,0.35285 -0.0321,4.09791"
       id="path1992"
       sodipodi:nodetypes="ccc" /><path
       style="fill:#ffa100;fill-opacity:0;stroke:#000000;stroke-width:0.512001;stroke-linecap:round;stroke-opacity:1;paint-order:markers stroke fill"
       d="m 133.82448,127.97821 5.28469,-0.65759 0.2486,-5.52537 -5.34083,0.37691 z"
       id="path1996"
       sodipodi:nodetypes="ccccc" /><path
       style="fill:#ffa100;fill-opacity:0;stroke:#000000;stroke-width:0.512001;stroke-linecap:round;stroke-opacity:1;paint-order:markers stroke fill"
       d="m 139.08511,123.27884 -3.9134,0.35285 -0.0321,4.09791"
       id="path1998"
       sodipodi:nodetypes="ccc" /><path
       style="fill:#ffa100;fill-opacity:0;stroke:#000000;stroke-width:0.512001;stroke-linecap:round;stroke-opacity:1;paint-order:markers stroke fill"
       d="m 133.51943,134.99446 5.28469,-0.65759 0.2486,-5.52537 -5.34083,0.37691 z"
       id="path2000"
       sodipodi:nodetypes="ccccc" /><path
       style="fill:#ffa100;fill-opacity:0;stroke:#000000;stroke-width:0.512001;stroke-linecap:round;stroke-opacity:1;paint-order:markers stroke fill"
       d="m 138.78006,130.29509 -3.9134,0.35285 -0.0321,4.09791"
       id="path2002"
       sodipodi:nodetypes="ccc" /><path
       style="fill:#ffa100;fill-opacity:0;stroke:#000000;stroke-width:0.512001;stroke-linecap:round;stroke-opacity:1;paint-order:markers stroke fill"
       d="m 87.216926,149.15108 c 0.176424,-0.70571 -1.547714,-39.27098 -1.547714,-39.27098 0,0 -0.473136,-1.58784 1.419407,-1.90861 1.892541,-0.32078 24.314361,-1.67606 24.314361,-1.67606 l -0.39294,38.29262 -22.42984,5.96643 c 0,0 -0.561348,0.40898 -1.363274,-1.4034 z"
       id="path2004" /><path
       style="fill:#ffa100;fill-opacity:0;stroke:#000000;stroke-width:0.512001;stroke-linecap:round;stroke-opacity:1;paint-order:markers stroke fill"
       d="M 86.495516,142.98448 86.29536,135.62236"
       id="path2006"
       sodipodi:nodetypes="cc" /><path
       style="fill:#ffa100;fill-opacity:0;stroke:#000000;stroke-width:0.512001;stroke-linecap:round;stroke-opacity:1;paint-order:markers stroke fill"
       d="M 85.878034,126.04784 85.509312,117.8995"
       id="path2008"
       sodipodi:nodetypes="cc" /><path
       style="fill:#ffa100;fill-opacity:0;stroke:#000000;stroke-width:0.512001;stroke-linecap:round;stroke-opacity:1;paint-order:markers stroke fill"
       d="m 105.42062,129.23892 5.31676,-0.54532 0.008,-5.05222 c 0,0 -2.12137,-3.88388 -5.2927,0.84204 -0.40899,0.60947 -0.12029,4.77154 -0.12029,4.77154 z"
       id="path2010"
       sodipodi:nodetypes="cccscc" /><path
       style="fill:#ffa100;fill-opacity:0;stroke:#000000;stroke-width:0.512001;stroke-linecap:round;stroke-opacity:1;paint-order:markers stroke fill"
       d="m 108.36369,126.90528 -0.0962,-3.81723"
       id="path2012"
       sodipodi:nodetypes="cc" /><path
       style="fill:#ffa100;fill-opacity:0;stroke:#000000;stroke-width:0.512001;stroke-linecap:round;stroke-opacity:1;paint-order:markers stroke fill"
       d="m 110.48879,127.09774 -4.92382,0.60146"
       id="path2014"
       sodipodi:nodetypes="cc" /><path
       style="fill:#ffa100;fill-opacity:0;stroke:#000000;stroke-width:0.512001;stroke-linecap:round;stroke-opacity:1;paint-order:markers stroke fill"
       d="m 110.85767,106.57611 20.45711,-1.41141 c 0,0 1.11468,-1.09866 1.20288,2.41384 0.10216,4.06837 -2.38973,31.26762 -2.38973,31.26762 -0.0901,-0.42412 0.22532,1.59485 -2.10104,1.86852 -3.0152,0.35471 -17.76265,3.67288 -17.19328,3.84931 0.56937,0.17642 0.44105,-38.04402 0.44105,-38.04402 z"
       id="path2016"
       sodipodi:nodetypes="ccscsscc" /><path
       style="fill:#ffa100;fill-opacity:0;stroke:#000000;stroke-width:0.512001;stroke-linecap:round;stroke-opacity:1;paint-order:markers stroke fill"
       d="m 116.7839,115.54179 -0.59343,19.40694 10.44909,-2.1492 0.29671,-18.51678 z"
       id="path2018" /><path
       style="fill:#ffa100;fill-opacity:0;stroke:#000000;stroke-width:0.512001;stroke-linecap:round;stroke-opacity:1;paint-order:markers stroke fill"
       d="m 116.43907,131.8773 9.82358,-2.17325"
       id="path2020" /><path
       style="fill:#ffa100;fill-opacity:0;stroke:#000000;stroke-width:0.512001;stroke-linecap:round;stroke-opacity:1;paint-order:markers stroke fill"
       d="m 116.19849,134.05858 9.42262,-1.78833 -0.0241,-1.95673"
       id="path2022"
       sodipodi:nodetypes="ccc" /></g><g
     inkscape:groupmode="layer"
     id="layer2"
     inkscape:label="Layer 2"
     style="display:none"><path
       style="fill:#ffa100;fill-opacity:0;stroke:#000000;stroke-width:0.512001;stroke-linecap:round;stroke-opacity:1;paint-order:markers stroke fill"
       d="M 23.676359,187.57932 21.37415,89.671278 c 0,0 -1.848571,-3.209542 6.362263,-3.436366 8.210833,-0.226822 151.639587,0.918633 151.639587,0.918633 0,0 3.15278,-1.020701 3.17546,3.697211 0.0227,4.717912 -3.6858,97.091484 -3.6858,97.091484 z"
       id="path2090"
       sodipodi:nodetypes="ccscscc"
       clip-path="url(#clipPath2980)" /><path
       style="fill:#ffa100;fill-opacity:0;stroke:#000000;stroke-width:0.512001;stroke-linecap:round;stroke-opacity:1;paint-order:markers stroke fill"
       d="M 179.05846,178.18886 23.392836,180.06015"
       id="path2092" /><path
       style="fill:#ffa100;fill-opacity:0;stroke:#000000;stroke-width:0.512001;stroke-linecap:round;stroke-opacity:1;paint-order:markers stroke fill"
       d="m 56.185397,98.517365 0.918618,65.154835 c 0,0 0.362907,3.05077 -2.370257,3.5838 -2.733164,0.53304 -57.1242688,16.95501 -57.1242688,16.95501 L -5.5546304,87.720603 53.293462,96.215114 c 0,0 2.959981,0.04537 2.891935,2.302251 z"
       id="path2094" /><path
       style="fill:#ffa100;fill-opacity:0;stroke:#000000;stroke-width:0.512001;stroke-linecap:round;stroke-opacity:1;paint-order:markers stroke fill"
       d="m 57.523628,152.64862 -0.453636,-12.4866"
       id="path2096"
       sodipodi:nodetypes="cc" /><path
       style="fill:#ffa100;fill-opacity:0;stroke:#000000;stroke-width:0.512001;stroke-linecap:round;stroke-opacity:1;paint-order:markers stroke fill"
       d="M 57.013286,124.1937 56.673059,111.21944"
       id="path2098" /><path
       style="fill:#ffa100;fill-opacity:0;stroke:#000000;stroke-width:0.512001;stroke-linecap:round;stroke-opacity:1;paint-order:markers stroke fill"
       d="m 59.303319,163.66086 -1.122752,-65.506411 45.148243,0.657786 -0.5557,65.222885 c 0,0 -43.810019,0.51035 -43.469791,-0.37426 z"
       id="path2100" /><path
       style="fill:#ffa100;fill-opacity:0;stroke:#000000;stroke-width:0.512001;stroke-linecap:round;stroke-opacity:1;paint-order:markers stroke fill"
       d="m 102.603,166.77967 0.71447,-70.303708 43.29968,-0.47633 c 0,0 1.87125,-0.725831 2.10941,4.173538 0.23816,4.89937 -1.16811,65.63117 -1.16811,65.63117 0,0 0.19279,1.57642 -4.23017,1.46301 -4.42297,-0.11342 -41.33769,-0.78254 -40.72528,-0.48768 z"
       id="path2102"
       sodipodi:nodetypes="cccscsc" /><path
       style="fill:#ffa100;fill-opacity:0;stroke:#000000;stroke-width:0.512001;stroke-linecap:round;stroke-opacity:1;paint-order:markers stroke fill"
       d="m 114.29057,113.5113 -0.33456,36.64322 22.71589,-0.36859 0.58406,-36.50145 c 0,0 -22.85198,0.40261 -22.96539,0.22682 z"
       id="path2104" /><path
       style="fill:#ffa100;fill-opacity:0;stroke:#000000;stroke-width:0.512001;stroke-linecap:round;stroke-opacity:1;paint-order:markers stroke fill"
       d="m 113.95601,143.44624 22.56279,-0.22683"
       id="path2106" /><path
       style="fill:#ffa100;fill-opacity:0;stroke:#000000;stroke-width:0.512001;stroke-linecap:round;stroke-opacity:1;paint-order:markers stroke fill"
       d="m 154.35808,99.13641 c 0.11341,0.856258 -0.0964,9.29973 -0.0964,9.29973 0,0 -0.0454,0.74852 1.17379,0.74852 1.21915,0 16.86963,0.068 16.86963,0.068 0,0 0.78253,-0.19847 0.74284,-1.26454 -0.0397,-1.06607 -0.017,-9.1523 -0.017,-9.1523 0,0 0.30621,-0.379926 -1.58205,-0.31755 -1.88827,0.06238 -15.77524,-0.05671 -15.77524,-0.05671 0,0 -0.91862,-0.357245 -1.31555,0.674796 z"
       id="path2110" /><rect
       style="fill:#ffa100;fill-opacity:0;stroke:#000000;stroke-width:0.512001;stroke-linecap:round;stroke-opacity:1;paint-order:markers stroke fill"
       id="rect2112"
       width="8.2335157"
       height="8.7440176"
       x="155.25969"
       y="99.334885" /><rect
       style="fill:#ffa100;fill-opacity:0;stroke:#000000;stroke-width:0.512001;stroke-linecap:round;stroke-opacity:1;paint-order:markers stroke fill"
       id="rect2114"
       width="7.8876104"
       height="8.8063955"
       x="165.15465"
       y="99.32354" /><path
       style="fill:#ffa100;fill-opacity:0;stroke:#000000;stroke-width:0.512001;stroke-linecap:round;stroke-opacity:1;paint-order:markers stroke fill"
       d="m 154.12559,162.31789 18.88832,-0.10207 c 0,0 1.53103,-42.94322 1.37793,-43.39119 -0.15311,-0.44798 -19.53476,-0.0623 -19.53476,-0.0623 0,0 -0.87892,44.30416 -0.73149,43.55564 z"
       id="path2116"
       sodipodi:nodetypes="ccscsc" /><path
       style="fill:#ffa100;fill-opacity:0;stroke:#000000;stroke-width:0.512001;stroke-linecap:round;stroke-opacity:1;paint-order:markers stroke fill"
       d="m 172.04426,118.80761 -0.90727,42.60299 -16.97171,-0.006"
       id="path2118" /><path
       style="fill:#ffa100;fill-opacity:0;stroke:#000000;stroke-width:0.512001;stroke-linecap:round;stroke-opacity:1;paint-order:markers stroke fill"
       d="m 156.8701,121.04182 -0.0624,12.14636 13.17816,-0.0567 0.21548,-12.26544 c 0,0 -11.47235,-0.019 -13.33793,0.0264"
       id="path2122"
       sodipodi:nodetypes="ccccc" /><path
       style="fill:#ffa100;fill-opacity:0;stroke:#000000;stroke-width:0.512001;stroke-linecap:round;stroke-opacity:1;paint-order:markers stroke fill"
       d="m 160.28857,122.76541 0.0613,8.40193 8.43628,0.11883 0.13032,-8.60125 c 0,0 -8.79657,0.24531 -8.62792,0.0805 z"
       id="path2856"
       sodipodi:nodetypes="ccccc" /><path
       style="fill:#ffa100;fill-opacity:0;stroke:#000000;stroke-width:0.512001;stroke-linecap:round;stroke-opacity:1;paint-order:markers stroke fill"
       d="m 156.7972,134.38304 -0.0624,12.14636 13.17816,-0.0567 0.21548,-12.26544 c 0,0 -11.47235,-0.019 -13.33793,0.0264"
       id="path2858"
       sodipodi:nodetypes="ccccc" /><path
       style="fill:#ffa100;fill-opacity:0;stroke:#000000;stroke-width:0.512001;stroke-linecap:round;stroke-opacity:1;paint-order:markers stroke fill"
       d="m 160.21567,136.10663 0.0613,8.40193 8.43628,0.11883 0.13032,-8.60125 c 0,0 -8.79657,0.24531 -8.62792,0.0805 z"
       id="path2860"
       sodipodi:nodetypes="ccccc" /><path
       style="fill:#ffa100;fill-opacity:0;stroke:#000000;stroke-width:0.512001;stroke-linecap:round;stroke-opacity:1;paint-order:markers stroke fill"
       d="m 156.7972,148.08878 -0.0624,12.14636 13.17816,-0.0567 0.21548,-12.26544 c 0,0 -11.47235,-0.019 -13.33793,0.0264"
       id="path2862"
       sodipodi:nodetypes="ccccc" /><path
       style="fill:#ffa100;fill-opacity:0;stroke:#000000;stroke-width:0.512001;stroke-linecap:round;stroke-opacity:1;paint-order:markers stroke fill"
       d="m 160.21567,149.81237 0.0613,8.40193 8.43628,0.11883 0.13032,-8.60125 c 0,0 -8.79657,0.24531 -8.62792,0.0805 z"
       id="path2864"
       sodipodi:nodetypes="ccccc" /><path
       style="fill:#ffa100;fill-opacity:0;stroke:#000000;stroke-width:0.512001;stroke-linecap:round;stroke-opacity:1;paint-order:markers stroke fill"
       d="m 59.704543,111.24248 -0.0271,13.67096 c 0,0 0.07589,0.76431 1.062434,0.67758 0.986544,-0.0867 42.096233,0.23851 42.096233,0.23851 l 0.10299,-15.28089 -42.399785,0.0488 c 0,0 -0.970285,-0.3144 -0.834771,0.64506 z"
       id="path2866" /><path
       style="fill:#ffa100;fill-opacity:0;stroke:#000000;stroke-width:0.512001;stroke-linecap:round;stroke-opacity:1;paint-order:markers stroke fill"
       d="m 65.038395,125.48261 0.140936,-14.51116"
       id="path2868" /><path
       style="fill:#ffa100;fill-opacity:0;stroke:#000000;stroke-width:0.512001;stroke-linecap:round;stroke-opacity:1;paint-order:markers stroke fill"
       d="m 101.0961,125.77533 0.0596,-15.16164"
       id="path2870"
       sodipodi:nodetypes="cc" /><path
       style="fill:#ffa100;fill-opacity:0;stroke:#000000;stroke-width:0.512001;stroke-linecap:round;stroke-opacity:1;paint-order:markers stroke fill"
       d="m 89.317178,125.79701 -0.05963,-0.89983 -2.791598,-1.79967 -6.488438,0.0488 -2.114026,1.76172 0.01085,0.8131"
       id="path2872" /><path
       style="fill:#ffa100;fill-opacity:0;stroke:#000000;stroke-width:0.512001;stroke-linecap:round;stroke-opacity:1;paint-order:markers stroke fill"
       d="m 89.767086,110.79799 -2.986741,3.07352 -7.437035,-0.0434 -2.7916,-2.84586"
       id="path2874" /></g><g
     inkscape:groupmode="layer"
     id="layer3"
     inkscape:label="Layer 3"><path
       style="fill:#ffa100;fill-opacity:0;stroke:#000000;stroke-width:0.512001;stroke-linecap:round;stroke-opacity:1;paint-order:markers stroke fill"
       d="m 63.694185,134.47021 c 0,0 -1.272532,-42.277982 -0.613267,-42.208989 0.659262,0.06899 79.931912,0.329639 79.931912,0.329639 l -1.14221,41.81802 z"
       id="path3075" /><path
       style="fill:#ffa100;fill-opacity:0;stroke:#000000;stroke-width:0.512001;stroke-linecap:round;stroke-opacity:1;paint-order:markers stroke fill"
       d="m 66.599545,132.75303 72.419375,-0.62861 0.76658,-37.371751 -73.967873,-0.03066 z"
       id="path3185" /><path
       style="fill:#ffa100;fill-opacity:0;stroke:#000000;stroke-width:0.512001;stroke-linecap:round;stroke-opacity:1;paint-order:markers stroke fill"
       d="m 63.310894,127.83912 -3.418975,-0.0997 c 0,0 -0.77474,-2.18535 -0.797249,-4.4846 -0.04477,-4.57307 1.678822,-4.94458 1.678822,-4.94458 l 2.476074,-0.023"
       id="path3189"
       sodipodi:nodetypes="ccscc" /><path
       style="fill:#ffa100;fill-opacity:0;stroke:#000000;stroke-width:0.512001;stroke-linecap:round;stroke-opacity:1;paint-order:markers stroke fill"
       d="m 63.310894,127.83912 -3.418975,-0.0997 c 0,0 -0.77474,-2.18535 -0.797249,-4.4846 -0.04477,-4.57307 1.678822,-4.94458 1.678822,-4.94458 l 2.476074,-0.023"
       id="path3191"
       sodipodi:nodetypes="ccscc" /><path
       style="fill:#ffa100;fill-opacity:0;stroke:#000000;stroke-width:0.512001;stroke-linecap:round;stroke-opacity:1;paint-order:markers stroke fill"
       d="m 62.873477,109.17599 -3.418975,-0.0997 c 0,0 -0.77474,-2.18535 -0.797249,-4.4846 -0.04477,-4.57307 1.678822,-4.94458 1.678822,-4.94458 l 2.476074,-0.023"
       id="path3193"
       sodipodi:nodetypes="ccscc" /><path
       style="fill:#ffa100;fill-opacity:0;stroke:#000000;stroke-width:0.512001;stroke-linecap:round;stroke-opacity:1;paint-order:markers stroke fill"
       d="m 143.06076,99.860959 4.43572,0.04543 c 0,0 0.71593,2.205327 0.67685,4.504357 -0.0777,4.57262 -1.81066,4.89783 -1.81066,4.89783 l -3.49645,0.10251"
       id="path3195"
       sodipodi:nodetypes="ccscc" /><path
       style="fill:#ffa100;fill-opacity:0;stroke:#000000;stroke-width:0.512001;stroke-linecap:round;stroke-opacity:1;paint-order:markers stroke fill"
       d="m 142.47754,118.8157 4.43572,0.19124 c 0,0 0.71593,2.20532 0.67685,4.50435 -0.0777,4.57262 -1.81066,4.89783 -1.81066,4.89783 l -3.78806,-0.0433"
       id="path3197"
       sodipodi:nodetypes="ccscc" /><path
       style="fill:#ffa100;fill-opacity:0;stroke:#000000;stroke-width:0.512001;stroke-linecap:round;stroke-opacity:1;paint-order:markers stroke fill"
       d="m 58.72953,101.16911 c 0,0 -11.284143,-2.790421 -12.073728,-3.219718 -0.789583,-0.429297 -5.128459,-0.306639 -6.837945,0.260643 -1.709486,0.567286 -4.829492,2.039155 -6.730624,1.47954 -1.901135,-0.55962 -7.106253,-2.292136 -7.106253,-2.292136 0,0 -3.449636,3.449701 -0.559607,4.783581 2.890028,1.33389 5.442759,3.48037 6.784284,3.58003 1.341528,0.0996 7.857506,-1.5792 7.857506,-1.5792 0,0 4.7605,-1.24956 7.290234,-0.0767 2.529731,1.1729 11.698099,3.90199 11.698099,3.90199"
       id="path3199" /><path
       style="fill:#ffa100;fill-opacity:0;stroke:#000000;stroke-width:0.512001;stroke-linecap:round;stroke-opacity:1;paint-order:markers stroke fill"
       d="m 58.898181,120.43377 c 0,0 -9.75864,-0.62095 -13.913535,0.34497 -4.154895,0.96591 -15.324053,-1.82451 -15.324053,-1.82451 0,0 -1.234205,0.59028 -1.011894,2.23847 0.222311,1.64819 1.195875,2.87475 1.195875,2.87475 0,0 17.58548,3.15073 19.478947,1.41821 1.893467,-1.73251 9.996281,0.49829 9.996281,0.49829"
       id="path3201" /><path
       style="fill:#ffa100;fill-opacity:0;stroke:#000000;stroke-width:0.512001;stroke-linecap:round;stroke-opacity:1;paint-order:markers stroke fill"
       d="m 147.80576,102.13503 c 0,0 4.7145,0.55962 9.29102,3.0664 4.57652,2.50678 14.41182,-0.72827 14.41182,-0.72827 l 7.41288,0.25298 c 0,0 1.0119,1.07324 0.52128,2.89008 -0.49062,1.81684 -1.47185,2.76742 -1.47185,2.76742 0,0 -11.09249,-0.26831 -12.75599,0.88159 -1.66349,1.1499 -10.0346,-1.37221 -11.37613,-2.13114 -1.34153,-0.75894 -6.05603,-1.51021 -6.05603,-1.51021"
       id="path3203" /><path
       style="fill:#ffa100;fill-opacity:0;stroke:#000000;stroke-width:0.512001;stroke-linecap:round;stroke-opacity:1;paint-order:markers stroke fill"
       d="m 147.33973,121.33273 c 0.62094,0.0383 8.93073,2.00849 10.87786,0.66695 1.94712,-1.34155 12.29603,-5.4122 13.42292,-3.39604 1.12688,2.01616 2.92069,2.43779 1.5945,3.33471 -1.3262,0.89692 -9.35236,1.94716 -9.35236,1.94716 0,0 -12.67166,3.52636 -16.74223,2.10815"
       id="path3205"
       sodipodi:nodetypes="cssscc" /></g></svg>
