# Blender 4.0.2
# www.blender.org
mtllib ScienceWall.mtl
o Cube
v 0.003039 1.998803 -1.000000
v 0.003039 -0.001197 -1.000000
v 0.003039 1.998803 1.000000
v 0.003039 -0.001197 1.000000
v -0.003039 1.998803 -1.000000
v -0.003039 -0.001197 -1.000000
v -0.003039 1.998803 1.000000
v -0.003039 -0.001197 1.000000
v 0.003039 2.108093 1.000000
v -0.003039 2.108093 1.000000
v 0.003039 2.108093 -1.000000
v -0.003039 2.108093 -1.000000
v 0.040980 2.035233 1.000000
v 0.040980 2.071663 1.000000
v -0.040980 2.071663 1.000000
v -0.040980 2.035233 1.000000
v -0.040980 2.071663 -1.000000
v -0.040980 2.035233 -1.000000
v 0.040980 2.035233 -1.000000
v 0.040980 2.071663 -1.000000
v -0.093601 -0.021593 -1.000000
v -0.093601 -0.021593 1.000000
v 0.093601 -0.021593 -1.000000
v 0.093601 -0.021593 1.000000
vn -0.0000 -0.0000 1.0000
vn -1.0000 -0.0000 -0.0000
vn -0.0000 -0.0000 -1.0000
vn 1.0000 -0.0000 -0.0000
vn -0.0000 1.0000 -0.0000
vn -0.6926 0.7213 -0.0000
vn 0.6926 0.7213 -0.0000
vn 0.6926 -0.7213 -0.0000
vn -0.6926 -0.7213 -0.0000
vn -0.0000 -1.0000 -0.0000
vn -0.2197 0.9756 -0.0000
vn 0.2197 0.9756 -0.0000
vt 0.204030 0.438834
vt 0.204030 0.350575
vt 0.207581 0.376444
vt 0.207581 0.401708
vt 0.001991 0.376444
vt 0.196929 0.376444
vt 0.196929 0.401708
vt 0.001991 0.401708
vt 0.014437 0.867040
vt 0.014437 0.477742
vt 0.403735 0.477742
vt 0.403735 0.867040
vt 0.209576 0.376444
vt 0.209576 0.401708
vt 0.207588 0.441012
vt 0.207588 0.353135
vt 0.367222 0.343980
vt 0.040134 0.343980
vt 0.040134 0.016893
vt 0.367222 0.016893
vt 0.404513 0.376444
vt 0.404513 0.401708
vt 1.000008 0.157708
vt 1.000008 0.182976
vt 0.805048 0.182976
vt 0.805048 0.157708
vt 1.000008 0.340699
vt 0.805048 0.340699
vt 0.805048 -0.000015
vt 1.000008 -0.000015
vt 0.411615 0.432681
vt 0.411615 0.345470
vt 0.415166 0.376444
vt 0.415166 0.401708
vt 0.408064 0.345470
vt 0.408064 0.432681
vt 0.962773 0.340675
vt 0.962773 0.535637
vt 0.805049 0.535637
vt 0.805049 0.340675
vt 0.808607 0.730575
vt 0.808607 0.925512
vt 0.805056 0.925512
vt 0.805056 0.730575
vt 0.805049 0.730581
vt 0.805049 0.535619
vt 0.962773 0.535619
vt 0.962773 0.730581
vt 0.812158 0.730575
vt 0.812158 0.925512
vt 0.808607 0.925512
vt 0.808607 0.730575
vt 0.200480 0.350575
vt 0.200480 0.438834
vt 0.610110 0.000012
vt 0.610110 0.778139
vt 0.415172 0.778139
vt 0.415172 0.000012
vt 0.000003 0.441012
vt 0.000003 0.353135
vt 0.610115 0.000005
vt 0.805054 0.000005
vt 0.805054 0.376438
vt 0.610115 0.376438
vt 0.805054 0.752882
vt 0.610115 0.752882
vt 0.610115 0.376448
vt 0.805054 0.376448
s 0
usemtl Material
f 15/1/1 14/2/1 9/3/1 10/4/1
f 4/5/1 3/6/1 7/7/1 8/8/1
f 8/9/2 7/10/2 5/11/2 6/12/2
f 6/13/3 2/14/3 23/15/3 21/16/3
f 2/17/4 1/18/4 3/19/4 4/20/4
f 6/13/3 5/21/3 1/22/3 2/14/3
f 11/23/5 12/24/5 10/25/5 9/26/5
f 17/27/6 15/28/6 10/25/6 12/24/6
f 14/29/7 20/30/7 11/23/7 9/26/7
f 20/31/3 17/32/3 12/33/3 11/34/3
f 1/22/3 5/21/3 18/35/3 19/36/3
f 19/36/3 18/35/3 17/32/3 20/31/3
f 3/37/8 1/38/8 19/39/8 13/40/8
f 13/41/4 19/42/4 20/43/4 14/44/4
f 5/45/9 7/46/9 16/47/9 18/48/9
f 18/49/2 16/50/2 15/51/2 17/52/2
f 7/7/1 3/6/1 13/53/1 16/54/1
f 16/54/1 13/53/1 14/2/1 15/1/1
f 21/55/10 23/56/10 24/57/10 22/58/10
f 4/5/1 8/8/1 22/59/1 24/60/1
f 8/61/11 6/62/11 21/63/11 22/64/11
f 2/65/12 4/66/12 24/67/12 23/68/12
